<mxfile host="app.diagrams.net" modified="2023-04-16T06:41:50.828Z" agent="Mozilla/5.0 (X11; Linux x86_64) AppleWebKit/537.36 (KHTML, like Gecko) Chrome/111.0.0.0 Safari/537.36" etag="ge5SB6J5IFxBpgTrQWc3" version="21.1.4" type="device">
  <diagram name="Page-1" id="0783ab3e-0a74-02c8-0abd-f7b4e66b4bec">
    <mxGraphModel dx="4540" dy="2380" grid="1" gridSize="10" guides="1" tooltips="1" connect="1" arrows="1" fold="1" page="1" pageScale="1" pageWidth="2500" pageHeight="1400" background="none" math="0" shadow="0">
      <root>
        <mxCell id="0" />
        <mxCell id="1" parent="0" />
        <mxCell id="1c1d494c118603dd-1" value="History Flow" style="swimlane;html=1;childLayout=stackLayout;startSize=20;rounded=1;shadow=0;comic=0;labelBackgroundColor=none;strokeWidth=1;fontFamily=Verdana;fontSize=12;align=center;fillColor=#F5AB50;strokeColor=#909090;fontColor=#1A1A1A;" parent="1" vertex="1">
          <mxGeometry x="360" y="110" width="1720" height="930" as="geometry" />
        </mxCell>
        <mxCell id="1c1d494c118603dd-2" value="UI" style="swimlane;html=1;startSize=20;labelBackgroundColor=none;fillColor=#F5AB50;strokeColor=#909090;fontColor=#1A1A1A;rounded=1;" parent="1c1d494c118603dd-1" vertex="1">
          <mxGeometry y="20" width="250" height="910" as="geometry">
            <mxRectangle y="20" width="40" height="2770" as="alternateBounds" />
          </mxGeometry>
        </mxCell>
        <mxCell id="0ttMGwkUPAn2IfLDutRi-9" style="edgeStyle=orthogonalEdgeStyle;rounded=1;orthogonalLoop=1;jettySize=auto;html=1;strokeColor=#182E3E;fontColor=default;labelBackgroundColor=none;" parent="1c1d494c118603dd-2" source="60571a20871a0731-4" target="0ttMGwkUPAn2IfLDutRi-3" edge="1">
          <mxGeometry relative="1" as="geometry">
            <Array as="points">
              <mxPoint x="90" y="75" />
            </Array>
          </mxGeometry>
        </mxCell>
        <mxCell id="60571a20871a0731-4" value="" style="ellipse;whiteSpace=wrap;html=1;rounded=1;shadow=0;comic=0;labelBackgroundColor=none;strokeWidth=1;fillColor=#F5AB50;fontFamily=Verdana;fontSize=12;align=center;strokeColor=#909090;fontColor=#1A1A1A;" parent="1c1d494c118603dd-2" vertex="1">
          <mxGeometry x="20" y="60" width="30" height="30" as="geometry" />
        </mxCell>
        <mxCell id="0ttMGwkUPAn2IfLDutRi-3" value="binary_history" style="html=1;shadow=0;dashed=0;align=center;verticalAlign=middle;shape=mxgraph.arrows2.arrow;dy=0;dx=10;notch=0;labelBackgroundColor=none;fillColor=#F5AB50;strokeColor=#909090;fontColor=#1A1A1A;rounded=1;" parent="1c1d494c118603dd-2" vertex="1">
          <mxGeometry x="90" y="60" width="130" height="30" as="geometry" />
        </mxCell>
        <mxCell id="LzMdF5yWvqr9AUWOiEUe-1" value="" style="whiteSpace=wrap;html=1;rounded=1;shadow=0;comic=0;labelBackgroundColor=none;strokeWidth=1;fillColor=#F5AB50;fontFamily=Verdana;fontSize=12;align=center;rotation=0;direction=north;strokeColor=#909090;fontColor=#1A1A1A;" parent="1c1d494c118603dd-2" vertex="1">
          <mxGeometry x="220" y="30" width="10" height="112" as="geometry" />
        </mxCell>
        <mxCell id="ZyaZuUTQX9E7n-YZ997y-89" value="binary_filter_btn" style="html=1;shadow=0;dashed=0;align=center;verticalAlign=middle;shape=mxgraph.arrows2.arrow;dy=0;dx=10;notch=0;labelBackgroundColor=none;fillColor=#F5AB50;strokeColor=#909090;fontColor=#1A1A1A;rounded=1;" parent="1c1d494c118603dd-2" vertex="1">
          <mxGeometry x="85" y="270" width="130" height="30" as="geometry" />
        </mxCell>
        <mxCell id="1c1d494c118603dd-3" value="UI_main_window" style="swimlane;html=1;startSize=20;labelBackgroundColor=none;fillColor=#F5AB50;strokeColor=#909090;fontColor=#1A1A1A;rounded=1;" parent="1c1d494c118603dd-1" vertex="1">
          <mxGeometry x="250" y="20" width="250" height="910" as="geometry" />
        </mxCell>
        <mxCell id="LzMdF5yWvqr9AUWOiEUe-7" style="edgeStyle=orthogonalEdgeStyle;rounded=0;orthogonalLoop=1;jettySize=auto;html=1;" parent="1c1d494c118603dd-3" source="LzMdF5yWvqr9AUWOiEUe-3" target="0ttMGwkUPAn2IfLDutRi-56" edge="1">
          <mxGeometry relative="1" as="geometry" />
        </mxCell>
        <mxCell id="LzMdF5yWvqr9AUWOiEUe-3" value="receive clicked&amp;nbsp;&lt;br&gt;binary_history" style="html=1;shape=mxgraph.sysml.accEvent;strokeWidth=2;whiteSpace=wrap;align=center;strokeColor=#909090;fontColor=#1A1A1A;fillColor=#F5AB50;labelBackgroundColor=none;rounded=1;rotation=90;" parent="1c1d494c118603dd-3" vertex="1">
          <mxGeometry x="75" y="140" width="100" height="30" as="geometry" />
        </mxCell>
        <mxCell id="0ttMGwkUPAn2IfLDutRi-56" value="set stylesheet of btn" style="rounded=1;whiteSpace=wrap;html=1;strokeColor=#909090;fontColor=#1A1A1A;fillColor=#F5AB50;labelBackgroundColor=none;" parent="1c1d494c118603dd-3" vertex="1">
          <mxGeometry x="50" y="240" width="150" height="30" as="geometry" />
        </mxCell>
        <mxCell id="iVWesP0wvM5eVoUu-c5u-1" value="API" style="swimlane;html=1;startSize=20;labelBackgroundColor=none;fillColor=#F5AB50;strokeColor=#909090;fontColor=#1A1A1A;rounded=1;" parent="1c1d494c118603dd-1" vertex="1">
          <mxGeometry x="500" y="20" width="470" height="910" as="geometry" />
        </mxCell>
        <mxCell id="0ttMGwkUPAn2IfLDutRi-30" value="" style="edgeStyle=orthogonalEdgeStyle;rounded=1;orthogonalLoop=1;jettySize=auto;html=1;strokeColor=#182E3E;fontColor=default;labelBackgroundColor=none;" parent="iVWesP0wvM5eVoUu-c5u-1" source="0ttMGwkUPAn2IfLDutRi-20" target="0ttMGwkUPAn2IfLDutRi-29" edge="1">
          <mxGeometry relative="1" as="geometry" />
        </mxCell>
        <mxCell id="0ttMGwkUPAn2IfLDutRi-20" value="receive clicked&amp;nbsp;&lt;br&gt;binary_history" style="html=1;shape=mxgraph.sysml.accEvent;strokeWidth=2;whiteSpace=wrap;align=center;strokeColor=#909090;fontColor=#1A1A1A;fillColor=#F5AB50;labelBackgroundColor=none;rounded=1;" parent="iVWesP0wvM5eVoUu-c5u-1" vertex="1">
          <mxGeometry x="60" y="60" width="100" height="30" as="geometry" />
        </mxCell>
        <mxCell id="ZyaZuUTQX9E7n-YZ997y-1" style="edgeStyle=orthogonalEdgeStyle;rounded=0;orthogonalLoop=1;jettySize=auto;html=1;entryX=0.5;entryY=0;entryDx=0;entryDy=0;" parent="iVWesP0wvM5eVoUu-c5u-1" source="0ttMGwkUPAn2IfLDutRi-29" target="LzMdF5yWvqr9AUWOiEUe-11" edge="1">
          <mxGeometry relative="1" as="geometry" />
        </mxCell>
        <mxCell id="0ttMGwkUPAn2IfLDutRi-29" value="refresh_binary_&lt;br&gt;models_table_onevent" style="rounded=1;whiteSpace=wrap;html=1;strokeColor=#909090;fontColor=#1A1A1A;fillColor=#F5AB50;labelBackgroundColor=none;" parent="iVWesP0wvM5eVoUu-c5u-1" vertex="1">
          <mxGeometry x="175" y="52.5" width="155" height="45" as="geometry" />
        </mxCell>
        <mxCell id="ZyaZuUTQX9E7n-YZ997y-5" style="edgeStyle=orthogonalEdgeStyle;rounded=0;orthogonalLoop=1;jettySize=auto;html=1;entryX=0.5;entryY=0;entryDx=0;entryDy=0;" parent="iVWesP0wvM5eVoUu-c5u-1" source="LzMdF5yWvqr9AUWOiEUe-11" target="ZyaZuUTQX9E7n-YZ997y-6" edge="1">
          <mxGeometry relative="1" as="geometry">
            <mxPoint x="252.5" y="230" as="targetPoint" />
          </mxGeometry>
        </mxCell>
        <mxCell id="LzMdF5yWvqr9AUWOiEUe-11" value="refresh_binary_models_table" style="rounded=1;whiteSpace=wrap;html=1;strokeColor=#909090;fontColor=#1A1A1A;fillColor=#F5AB50;labelBackgroundColor=none;" parent="iVWesP0wvM5eVoUu-c5u-1" vertex="1">
          <mxGeometry x="170" y="140" width="165" height="45" as="geometry" />
        </mxCell>
        <mxCell id="ZyaZuUTQX9E7n-YZ997y-12" style="edgeStyle=orthogonalEdgeStyle;rounded=0;orthogonalLoop=1;jettySize=auto;html=1;entryX=0.5;entryY=0;entryDx=0;entryDy=0;" parent="iVWesP0wvM5eVoUu-c5u-1" source="ZyaZuUTQX9E7n-YZ997y-6" target="ZyaZuUTQX9E7n-YZ997y-13" edge="1">
          <mxGeometry relative="1" as="geometry">
            <mxPoint x="90" y="320" as="targetPoint" />
          </mxGeometry>
        </mxCell>
        <mxCell id="ZyaZuUTQX9E7n-YZ997y-14" value="False" style="edgeLabel;html=1;align=center;verticalAlign=middle;resizable=0;points=[];" parent="ZyaZuUTQX9E7n-YZ997y-12" vertex="1" connectable="0">
          <mxGeometry x="-0.2157" y="3" relative="1" as="geometry">
            <mxPoint as="offset" />
          </mxGeometry>
        </mxCell>
        <mxCell id="ZyaZuUTQX9E7n-YZ997y-6" value="get_count ?" style="rhombus;whiteSpace=wrap;html=1;fillColor=#f5ab50;" parent="iVWesP0wvM5eVoUu-c5u-1" vertex="1">
          <mxGeometry x="192.5" y="230" width="120" height="70" as="geometry" />
        </mxCell>
        <mxCell id="ZyaZuUTQX9E7n-YZ997y-15" style="edgeStyle=orthogonalEdgeStyle;rounded=0;orthogonalLoop=1;jettySize=auto;html=1;entryX=1;entryY=0.5;entryDx=0;entryDy=0;" parent="iVWesP0wvM5eVoUu-c5u-1" source="ZyaZuUTQX9E7n-YZ997y-10" target="ZyaZuUTQX9E7n-YZ997y-13" edge="1">
          <mxGeometry relative="1" as="geometry" />
        </mxCell>
        <mxCell id="ZyaZuUTQX9E7n-YZ997y-10" value="self.binary_model_&lt;br&gt;table_nextorprev" style="rounded=1;whiteSpace=wrap;html=1;strokeColor=#909090;fontColor=#1A1A1A;fillColor=#F5AB50;labelBackgroundColor=none;" parent="iVWesP0wvM5eVoUu-c5u-1" vertex="1">
          <mxGeometry x="280" y="370" width="165" height="45" as="geometry" />
        </mxCell>
        <mxCell id="ZyaZuUTQX9E7n-YZ997y-16" style="edgeStyle=orthogonalEdgeStyle;rounded=0;orthogonalLoop=1;jettySize=auto;html=1;entryX=0.5;entryY=0;entryDx=0;entryDy=0;" parent="iVWesP0wvM5eVoUu-c5u-1" source="ZyaZuUTQX9E7n-YZ997y-13" target="ZyaZuUTQX9E7n-YZ997y-17" edge="1">
          <mxGeometry relative="1" as="geometry">
            <mxPoint x="70" y="440" as="targetPoint" />
          </mxGeometry>
        </mxCell>
        <mxCell id="ZyaZuUTQX9E7n-YZ997y-18" value="True" style="edgeLabel;html=1;align=center;verticalAlign=middle;resizable=0;points=[];" parent="ZyaZuUTQX9E7n-YZ997y-16" vertex="1" connectable="0">
          <mxGeometry x="-0.0053" y="3" relative="1" as="geometry">
            <mxPoint as="offset" />
          </mxGeometry>
        </mxCell>
        <mxCell id="ZyaZuUTQX9E7n-YZ997y-13" value="filter_mode ?" style="rhombus;whiteSpace=wrap;html=1;fillColor=#f5ab50;" parent="iVWesP0wvM5eVoUu-c5u-1" vertex="1">
          <mxGeometry x="10" y="320" width="120" height="70" as="geometry" />
        </mxCell>
        <mxCell id="ZyaZuUTQX9E7n-YZ997y-17" value="set table page = 1&lt;br&gt;filter binary_models" style="rounded=1;whiteSpace=wrap;html=1;strokeColor=#909090;fontColor=#1A1A1A;fillColor=#F5AB50;labelBackgroundColor=none;" parent="iVWesP0wvM5eVoUu-c5u-1" vertex="1">
          <mxGeometry x="90" y="450" width="130" height="40" as="geometry" />
        </mxCell>
        <mxCell id="ZyaZuUTQX9E7n-YZ997y-75" value="get_filter_parms" style="rounded=1;whiteSpace=wrap;html=1;strokeColor=#909090;fontColor=#1A1A1A;fillColor=#F5AB50;labelBackgroundColor=none;" parent="iVWesP0wvM5eVoUu-c5u-1" vertex="1">
          <mxGeometry x="90" y="520" width="130" height="40" as="geometry" />
        </mxCell>
        <mxCell id="ZyaZuUTQX9E7n-YZ997y-86" value="True" style="edgeStyle=orthogonalEdgeStyle;rounded=0;orthogonalLoop=1;jettySize=auto;html=1;" parent="iVWesP0wvM5eVoUu-c5u-1" source="ZyaZuUTQX9E7n-YZ997y-84" target="ZyaZuUTQX9E7n-YZ997y-85" edge="1">
          <mxGeometry relative="1" as="geometry" />
        </mxCell>
        <mxCell id="ZyaZuUTQX9E7n-YZ997y-84" value="ret == True ?" style="rhombus;whiteSpace=wrap;html=1;fillColor=#f5ab50;" parent="iVWesP0wvM5eVoUu-c5u-1" vertex="1">
          <mxGeometry x="120" y="621" width="120" height="70" as="geometry" />
        </mxCell>
        <mxCell id="ZyaZuUTQX9E7n-YZ997y-88" style="edgeStyle=orthogonalEdgeStyle;rounded=0;orthogonalLoop=1;jettySize=auto;html=1;" parent="iVWesP0wvM5eVoUu-c5u-1" source="ZyaZuUTQX9E7n-YZ997y-85" target="ZyaZuUTQX9E7n-YZ997y-87" edge="1">
          <mxGeometry relative="1" as="geometry" />
        </mxCell>
        <mxCell id="ZyaZuUTQX9E7n-YZ997y-85" value="update_binary_model" style="rounded=1;whiteSpace=wrap;html=1;strokeColor=#909090;fontColor=#1A1A1A;fillColor=#F5AB50;labelBackgroundColor=none;" parent="iVWesP0wvM5eVoUu-c5u-1" vertex="1">
          <mxGeometry x="115" y="729" width="130" height="40" as="geometry" />
        </mxCell>
        <mxCell id="ZyaZuUTQX9E7n-YZ997y-87" value="update_table" style="rounded=1;whiteSpace=wrap;html=1;strokeColor=#909090;fontColor=#1A1A1A;fillColor=#F5AB50;labelBackgroundColor=none;" parent="iVWesP0wvM5eVoUu-c5u-1" vertex="1">
          <mxGeometry x="115" y="810" width="130" height="40" as="geometry" />
        </mxCell>
        <mxCell id="ZyaZuUTQX9E7n-YZ997y-91" value="receive clicked&amp;nbsp;&lt;br&gt;binary_filter_btn" style="html=1;shape=mxgraph.sysml.accEvent;strokeWidth=2;whiteSpace=wrap;align=center;strokeColor=#909090;fontColor=#1A1A1A;fillColor=#F5AB50;labelBackgroundColor=none;rounded=1;" parent="iVWesP0wvM5eVoUu-c5u-1" vertex="1">
          <mxGeometry x="60" y="120" width="100" height="30" as="geometry" />
        </mxCell>
        <mxCell id="LzMdF5yWvqr9AUWOiEUe-51" value="binary_model_funcs" style="swimlane;html=1;startSize=20;labelBackgroundColor=none;fillColor=#F5AB50;strokeColor=#909090;fontColor=#1A1A1A;rounded=1;" parent="1c1d494c118603dd-1" vertex="1">
          <mxGeometry x="970" y="20" width="320" height="910" as="geometry">
            <mxRectangle y="20" width="40" height="2770" as="alternateBounds" />
          </mxGeometry>
        </mxCell>
        <mxCell id="ZyaZuUTQX9E7n-YZ997y-2" value="get_binary_models_from_db" style="rounded=1;whiteSpace=wrap;html=1;strokeColor=#909090;fontColor=#1A1A1A;fillColor=#F5AB50;labelBackgroundColor=none;" parent="LzMdF5yWvqr9AUWOiEUe-51" vertex="1">
          <mxGeometry x="40" y="260" width="170" height="45" as="geometry" />
        </mxCell>
        <mxCell id="ZyaZuUTQX9E7n-YZ997y-20" value="get_binary_filter_from_ui" style="rounded=1;whiteSpace=wrap;html=1;strokeColor=#909090;fontColor=#1A1A1A;fillColor=#F5AB50;labelBackgroundColor=none;" parent="LzMdF5yWvqr9AUWOiEUe-51" vertex="1">
          <mxGeometry x="60" y="447" width="170" height="45" as="geometry" />
        </mxCell>
        <mxCell id="ZyaZuUTQX9E7n-YZ997y-78" value="get_filtered_binary_models_from_db" style="rounded=1;whiteSpace=wrap;html=1;strokeColor=#909090;fontColor=#1A1A1A;fillColor=#F5AB50;labelBackgroundColor=none;" parent="LzMdF5yWvqr9AUWOiEUe-51" vertex="1">
          <mxGeometry x="30" y="570" width="260" height="45" as="geometry" />
        </mxCell>
        <mxCell id="1c1d494c118603dd-4" value="sheet_loader_win.data_loader_UI" style="swimlane;html=1;startSize=20;labelBackgroundColor=none;fillColor=#F5AB50;strokeColor=#909090;fontColor=#1A1A1A;rounded=1;" parent="1c1d494c118603dd-1" vertex="1">
          <mxGeometry x="1290" y="20" width="420" height="910" as="geometry" />
        </mxCell>
        <mxCell id="ZyaZuUTQX9E7n-YZ997y-80" value="search_binary_model_by_filter" style="rounded=1;whiteSpace=wrap;html=1;strokeColor=#909090;fontColor=#1A1A1A;fillColor=#F5AB50;labelBackgroundColor=none;" parent="1c1d494c118603dd-4" vertex="1">
          <mxGeometry x="80" y="633" width="210" height="45" as="geometry" />
        </mxCell>
        <mxCell id="LzMdF5yWvqr9AUWOiEUe-4" style="edgeStyle=orthogonalEdgeStyle;rounded=0;orthogonalLoop=1;jettySize=auto;html=1;entryX=0;entryY=0.5;entryDx=9;entryDy=0;entryPerimeter=0;" parent="1c1d494c118603dd-1" source="LzMdF5yWvqr9AUWOiEUe-1" target="0ttMGwkUPAn2IfLDutRi-20" edge="1">
          <mxGeometry relative="1" as="geometry">
            <Array as="points">
              <mxPoint x="300" y="95" />
              <mxPoint x="300" y="95" />
            </Array>
          </mxGeometry>
        </mxCell>
        <mxCell id="LzMdF5yWvqr9AUWOiEUe-5" style="edgeStyle=orthogonalEdgeStyle;rounded=0;orthogonalLoop=1;jettySize=auto;html=1;entryX=0;entryY=0.5;entryDx=9;entryDy=0;entryPerimeter=0;" parent="1c1d494c118603dd-1" source="LzMdF5yWvqr9AUWOiEUe-1" target="LzMdF5yWvqr9AUWOiEUe-3" edge="1">
          <mxGeometry relative="1" as="geometry">
            <Array as="points">
              <mxPoint x="375" y="106" />
            </Array>
          </mxGeometry>
        </mxCell>
        <mxCell id="ZyaZuUTQX9E7n-YZ997y-7" style="edgeStyle=orthogonalEdgeStyle;rounded=0;orthogonalLoop=1;jettySize=auto;html=1;entryX=0;entryY=0.5;entryDx=0;entryDy=0;" parent="1c1d494c118603dd-1" source="ZyaZuUTQX9E7n-YZ997y-6" target="ZyaZuUTQX9E7n-YZ997y-2" edge="1">
          <mxGeometry relative="1" as="geometry" />
        </mxCell>
        <mxCell id="ZyaZuUTQX9E7n-YZ997y-8" value="True" style="edgeLabel;html=1;align=center;verticalAlign=middle;resizable=0;points=[];" parent="ZyaZuUTQX9E7n-YZ997y-7" vertex="1" connectable="0">
          <mxGeometry x="-0.3505" y="3" relative="1" as="geometry">
            <mxPoint as="offset" />
          </mxGeometry>
        </mxCell>
        <mxCell id="ZyaZuUTQX9E7n-YZ997y-11" style="edgeStyle=orthogonalEdgeStyle;rounded=0;orthogonalLoop=1;jettySize=auto;html=1;entryX=1;entryY=0.5;entryDx=0;entryDy=0;" parent="1c1d494c118603dd-1" source="ZyaZuUTQX9E7n-YZ997y-2" target="ZyaZuUTQX9E7n-YZ997y-10" edge="1">
          <mxGeometry relative="1" as="geometry">
            <Array as="points">
              <mxPoint x="1095" y="413" />
            </Array>
          </mxGeometry>
        </mxCell>
        <mxCell id="ZyaZuUTQX9E7n-YZ997y-21" style="edgeStyle=orthogonalEdgeStyle;rounded=0;orthogonalLoop=1;jettySize=auto;html=1;entryX=0;entryY=0.5;entryDx=0;entryDy=0;" parent="1c1d494c118603dd-1" source="ZyaZuUTQX9E7n-YZ997y-17" target="ZyaZuUTQX9E7n-YZ997y-20" edge="1">
          <mxGeometry relative="1" as="geometry" />
        </mxCell>
        <mxCell id="ZyaZuUTQX9E7n-YZ997y-76" style="edgeStyle=orthogonalEdgeStyle;rounded=0;orthogonalLoop=1;jettySize=auto;html=1;entryX=1;entryY=0.25;entryDx=0;entryDy=0;" parent="1c1d494c118603dd-1" source="ZyaZuUTQX9E7n-YZ997y-20" target="ZyaZuUTQX9E7n-YZ997y-75" edge="1">
          <mxGeometry relative="1" as="geometry">
            <Array as="points">
              <mxPoint x="1115" y="550" />
            </Array>
          </mxGeometry>
        </mxCell>
        <mxCell id="ZyaZuUTQX9E7n-YZ997y-79" style="edgeStyle=orthogonalEdgeStyle;rounded=0;orthogonalLoop=1;jettySize=auto;html=1;entryX=0;entryY=0.5;entryDx=0;entryDy=0;" parent="1c1d494c118603dd-1" source="ZyaZuUTQX9E7n-YZ997y-75" target="ZyaZuUTQX9E7n-YZ997y-78" edge="1">
          <mxGeometry relative="1" as="geometry">
            <Array as="points">
              <mxPoint x="655" y="613" />
            </Array>
          </mxGeometry>
        </mxCell>
        <mxCell id="ZyaZuUTQX9E7n-YZ997y-81" style="edgeStyle=orthogonalEdgeStyle;rounded=0;orthogonalLoop=1;jettySize=auto;html=1;entryX=0.5;entryY=0;entryDx=0;entryDy=0;" parent="1c1d494c118603dd-1" source="ZyaZuUTQX9E7n-YZ997y-78" target="ZyaZuUTQX9E7n-YZ997y-80" edge="1">
          <mxGeometry relative="1" as="geometry" />
        </mxCell>
        <mxCell id="ZyaZuUTQX9E7n-YZ997y-82" style="edgeStyle=orthogonalEdgeStyle;rounded=0;orthogonalLoop=1;jettySize=auto;html=1;" parent="1c1d494c118603dd-1" source="ZyaZuUTQX9E7n-YZ997y-80" target="ZyaZuUTQX9E7n-YZ997y-84" edge="1">
          <mxGeometry relative="1" as="geometry">
            <mxPoint x="760" y="675.5" as="targetPoint" />
          </mxGeometry>
        </mxCell>
        <mxCell id="ZyaZuUTQX9E7n-YZ997y-90" style="edgeStyle=orthogonalEdgeStyle;rounded=0;orthogonalLoop=1;jettySize=auto;html=1;entryX=0.02;entryY=0.375;entryDx=0;entryDy=0;entryPerimeter=0;" parent="1c1d494c118603dd-1" source="ZyaZuUTQX9E7n-YZ997y-89" target="ZyaZuUTQX9E7n-YZ997y-91" edge="1">
          <mxGeometry relative="1" as="geometry">
            <mxPoint x="160" y="420" as="targetPoint" />
            <Array as="points">
              <mxPoint x="530" y="305" />
              <mxPoint x="530" y="151" />
            </Array>
          </mxGeometry>
        </mxCell>
      </root>
    </mxGraphModel>
  </diagram>
</mxfile>
